<?xml version="1.0" encoding="utf-8" standalone="no"?>
<!DOCTYPE svg PUBLIC "-//W3C//DTD SVG 1.1//EN"
  "http://www.w3.org/Graphics/SVG/1.1/DTD/svg11.dtd">
<svg xmlns:xlink="http://www.w3.org/1999/xlink" width="615.128125pt" height="356.679687pt" viewBox="0 0 615.128125 356.679687" xmlns="http://www.w3.org/2000/svg" version="1.1">
 <metadata>
  <rdf:RDF xmlns:dc="http://purl.org/dc/elements/1.1/" xmlns:cc="http://creativecommons.org/ns#" xmlns:rdf="http://www.w3.org/1999/02/22-rdf-syntax-ns#">
   <cc:Work>
    <dc:type rdf:resource="http://purl.org/dc/dcmitype/StillImage"/>
    <dc:date>2026-10-08T17:19:53.986234</dc:date>
    <dc:format>image/svg+xml</dc:format>
    <dc:creator>
     <cc:Agent>
      <dc:title>Matplotlib v3.10.8, https://matplotlib.org/</dc:title>
     </cc:Agent>
    </dc:creator>
   </cc:Work>
  </rdf:RDF>
 </metadata>
 <defs>
  <style type="text/css">*{stroke-linejoin: round; stroke-linecap: butt}</style>
 </defs>
 <g id="figure_1">
  <g id="patch_1">
   <path d="M 0 356.679687
L 615.128125 356.679687
L 615.128125 0
L 0 0
z
" style="fill: #ffffff"/>
  </g>
  <g id="axes_1">
   <g id="patch_2">
    <path d="M 49.928125 295.2
L 607.928125 295.2
L 607.928125 43.2
L 49.928125 43.2
z
" style="fill: #ffffff"/>
   </g>
   <g id="PathCollection_1">
    <defs>
     <path id="m419a543770" d="M 0 3
C 0.795609 3 1.55874 2.683901 2.12132 2.12132
C 2.683901 1.55874 3 0.795609 3 0
C 3 -0.795609 2.683901 -1.55874 2.12132 -2.12132
C 1.55874 -2.683901 0.795609 -3 0 -3
C -0.795609 -3 -1.55874 -2.683901 -2.12132 -2.12132
C -2.683901 -1.55874 -3 -0.795609 -3 0
C -3 0.795609 -2.683901 1.55874 -2.12132 2.12132
C -1.55874 2.683901 -0.795609 3 0 3
z
" style="stroke: #2563eb"/>
    </defs>
    <g clip-path="url(#p46cc3f81ba)">
     <use xlink:href="#m419a543770" x="244.38267" y="237.927273" style="fill: #2563eb; stroke: #2563eb"/>
     <use xlink:href="#m419a543770" x="286.655398" y="237.927273" style="fill: #2563eb; stroke: #2563eb"/>
     <use xlink:href="#m419a543770" x="328.928125" y="237.927273" style="fill: #2563eb; stroke: #2563eb"/>
     <use xlink:href="#m419a543770" x="371.200852" y="237.927273" style="fill: #2563eb; stroke: #2563eb"/>
     <use xlink:href="#m419a543770" x="413.47358" y="237.927273" style="fill: #2563eb; stroke: #2563eb"/>
    </g>
   </g>
   <g id="PathCollection_2">
    <defs>
     <path id="ma9e1b7632e" d="M 0 3
C 0.795609 3 1.55874 2.683901 2.12132 2.12132
C 2.683901 1.55874 3 0.795609 3 0
C 3 -0.795609 2.683901 -1.55874 2.12132 -2.12132
C 1.55874 -2.683901 0.795609 -3 0 -3
C -0.795609 -3 -1.55874 -2.683901 -2.12132 -2.12132
C -2.683901 -1.55874 -3 -0.795609 -3 0
C -3 0.795609 -2.683901 1.55874 -2.12132 2.12132
C -1.55874 2.683901 -0.795609 3 0 3
z
" style="stroke: #0f766e"/>
    </defs>
    <g clip-path="url(#p46cc3f81ba)">
     <use xlink:href="#ma9e1b7632e" x="75.291761" y="123.381818" style="fill: #0f766e; stroke: #0f766e"/>
     <use xlink:href="#ma9e1b7632e" x="202.109943" y="123.381818" style="fill: #0f766e; stroke: #0f766e"/>
     <use xlink:href="#ma9e1b7632e" x="328.928125" y="123.381818" style="fill: #0f766e; stroke: #0f766e"/>
     <use xlink:href="#ma9e1b7632e" x="455.746307" y="123.381818" style="fill: #0f766e; stroke: #0f766e"/>
     <use xlink:href="#ma9e1b7632e" x="582.564489" y="123.381818" style="fill: #0f766e; stroke: #0f766e"/>
    </g>
   </g>
   <g id="matplotlib.axis_1">
    <g id="xtick_1">
     <g id="line2d_1">
      <defs>
       <path id="m5c50d3fbba" d="M 0 0
L 0 3.5
" style="stroke: #000000; stroke-width: 0.8"/>
      </defs>
      <g>
       <use xlink:href="#m5c50d3fbba" x="75.291761" y="295.2" style="stroke: #000000; stroke-width: 0.8"/>
      </g>
     </g>
     <g id="text_1">
      <text style="font-size: 10px; font-family: 'DejaVu Sans'; text-anchor: middle" x="75.291761" y="309.798437" transform="rotate(-0 75.291761 309.798437)">−6</text>
     </g>
    </g>
    <g id="xtick_2">
     <g id="line2d_2">
      <g>
       <use xlink:href="#m5c50d3fbba" x="159.837216" y="295.2" style="stroke: #000000; stroke-width: 0.8"/>
      </g>
     </g>
     <g id="text_2">
      <text style="font-size: 10px; font-family: 'DejaVu Sans'; text-anchor: middle" x="159.837216" y="309.798437" transform="rotate(-0 159.837216 309.798437)">−4</text>
     </g>
    </g>
    <g id="xtick_3">
     <g id="line2d_3">
      <g>
       <use xlink:href="#m5c50d3fbba" x="244.38267" y="295.2" style="stroke: #000000; stroke-width: 0.8"/>
      </g>
     </g>
     <g id="text_3">
      <text style="font-size: 10px; font-family: 'DejaVu Sans'; text-anchor: middle" x="244.38267" y="309.798437" transform="rotate(-0 244.38267 309.798437)">−2</text>
     </g>
    </g>
    <g id="xtick_4">
     <g id="line2d_4">
      <g>
       <use xlink:href="#m5c50d3fbba" x="328.928125" y="295.2" style="stroke: #000000; stroke-width: 0.8"/>
      </g>
     </g>
     <g id="text_4">
      <text style="font-size: 10px; font-family: 'DejaVu Sans'; text-anchor: middle" x="328.928125" y="309.798437" transform="rotate(-0 328.928125 309.798437)">0</text>
     </g>
    </g>
    <g id="xtick_5">
     <g id="line2d_5">
      <g>
       <use xlink:href="#m5c50d3fbba" x="413.47358" y="295.2" style="stroke: #000000; stroke-width: 0.8"/>
      </g>
     </g>
     <g id="text_5">
      <text style="font-size: 10px; font-family: 'DejaVu Sans'; text-anchor: middle" x="413.47358" y="309.798437" transform="rotate(-0 413.47358 309.798437)">2</text>
     </g>
    </g>
    <g id="xtick_6">
     <g id="line2d_6">
      <g>
       <use xlink:href="#m5c50d3fbba" x="498.019034" y="295.2" style="stroke: #000000; stroke-width: 0.8"/>
      </g>
     </g>
     <g id="text_6">
      <text style="font-size: 10px; font-family: 'DejaVu Sans'; text-anchor: middle" x="498.019034" y="309.798437" transform="rotate(-0 498.019034 309.798437)">4</text>
     </g>
    </g>
    <g id="xtick_7">
     <g id="line2d_7">
      <g>
       <use xlink:href="#m5c50d3fbba" x="582.564489" y="295.2" style="stroke: #000000; stroke-width: 0.8"/>
      </g>
     </g>
     <g id="text_7">
      <text style="font-size: 10px; font-family: 'DejaVu Sans'; text-anchor: middle" x="582.564489" y="309.798437" transform="rotate(-0 582.564489 309.798437)">6</text>
     </g>
    </g>
    <g id="text_8">
     <text style="font-size: 10px; font-family: 'DejaVu Sans'; text-anchor: middle" x="328.928125" y="323.476562" transform="rotate(-0 328.928125 323.476562)">Unitless value</text>
    </g>
   </g>
   <g id="matplotlib.axis_2">
    <g id="ytick_1">
     <g id="line2d_8">
      <defs>
       <path id="m9cc84b80a7" d="M 0 0
L -3.5 0
" style="stroke: #000000; stroke-width: 0.8"/>
      </defs>
      <g>
       <use xlink:href="#m9cc84b80a7" x="49.928125" y="237.927273" style="stroke: #000000; stroke-width: 0.8"/>
      </g>
     </g>
     <g id="text_9">
      <text style="font-size: 10px; font-family: 'DejaVu Sans'; text-anchor: end" x="42.928125" y="241.726491" transform="rotate(-0 42.928125 241.726491)">Narrow</text>
     </g>
    </g>
    <g id="ytick_2">
     <g id="line2d_9">
      <g>
       <use xlink:href="#m9cc84b80a7" x="49.928125" y="123.381818" style="stroke: #000000; stroke-width: 0.8"/>
      </g>
     </g>
     <g id="text_10">
      <text style="font-size: 10px; font-family: 'DejaVu Sans'; text-anchor: end" x="42.928125" y="127.181037" transform="rotate(-0 42.928125 127.181037)">Wide</text>
     </g>
    </g>
   </g>
   <g id="patch_3">
    <path d="M 49.928125 295.2
L 49.928125 43.2
" style="fill: none; stroke: #000000; stroke-width: 0.8; stroke-linejoin: miter; stroke-linecap: square"/>
   </g>
   <g id="patch_4">
    <path d="M 607.928125 295.2
L 607.928125 43.2
" style="fill: none; stroke: #000000; stroke-width: 0.8; stroke-linejoin: miter; stroke-linecap: square"/>
   </g>
   <g id="patch_5">
    <path d="M 49.928125 295.2
L 607.928125 295.2
" style="fill: none; stroke: #000000; stroke-width: 0.8; stroke-linejoin: miter; stroke-linecap: square"/>
   </g>
   <g id="patch_6">
    <path d="M 49.928125 43.2
L 607.928125 43.2
" style="fill: none; stroke: #000000; stroke-width: 0.8; stroke-linejoin: miter; stroke-linecap: square"/>
   </g>
   <g id="text_11">
    <text style="font-size: 10px; font-family: 'DejaVu Sans'; text-anchor: start" x="75.291761" y="203.563636" transform="rotate(-0 75.291761 203.563636)">Narrow: mean=0, SD=1.414, IQR=2</text>
   </g>
   <g id="text_12">
    <text style="font-size: 10px; font-family: 'DejaVu Sans'; text-anchor: start" x="75.291761" y="89.018182" transform="rotate(-0 75.291761 89.018182)">Wide: mean=0, SD=4.243, IQR=6</text>
   </g>
  </g>
  <g id="text_13">
   <text style="font-weight: 700; font-size: 17px; font-family: 'DejaVu Sans'; text-anchor: start; fill: #183153" x="17.528125" y="20.117344" transform="rotate(-0 17.528125 20.117344)">Same center, different spread</text>
  </g>
  <g id="text_14">
   <text style="font-size: 10px; font-family: 'DejaVu Sans'; text-anchor: start; fill: #183153" x="17.528125" y="347.4" transform="rotate(-0 17.528125 347.4)">Exact samples: narrow [-2,-1,0,1,2]; wide [-6,-3,0,3,6]. Population SD; linear-interpolated quartiles.</text>
  </g>
 </g>
 <defs>
  <clipPath id="p46cc3f81ba">
   <rect x="49.928125" y="43.2" width="558" height="252"/>
  </clipPath>
 </defs>
</svg>
