<?xml version="1.0" encoding="utf-8" standalone="no"?>
<!DOCTYPE svg PUBLIC "-//W3C//DTD SVG 1.1//EN"
  "http://www.w3.org/Graphics/SVG/1.1/DTD/svg11.dtd">
<svg xmlns:xlink="http://www.w3.org/1999/xlink" width="553.357812pt" height="696.879687pt" viewBox="0 0 553.357812 696.879687" xmlns="http://www.w3.org/2000/svg" version="1.1">
 <metadata>
  <rdf:RDF xmlns:dc="http://purl.org/dc/elements/1.1/" xmlns:cc="http://creativecommons.org/ns#" xmlns:rdf="http://www.w3.org/1999/02/22-rdf-syntax-ns#">
   <cc:Work>
    <dc:type rdf:resource="http://purl.org/dc/dcmitype/StillImage"/>
    <dc:date>2026-10-08T17:19:54.475245</dc:date>
    <dc:format>image/svg+xml</dc:format>
    <dc:creator>
     <cc:Agent>
      <dc:title>Matplotlib v3.10.8, https://matplotlib.org/</dc:title>
     </cc:Agent>
    </dc:creator>
   </cc:Work>
  </rdf:RDF>
 </metadata>
 <defs>
  <style type="text/css">*{stroke-linejoin: round; stroke-linecap: butt}</style>
 </defs>
 <g id="figure_1">
  <g id="patch_1">
   <path d="M 0 696.879687
L 553.357812 696.879687
L 553.357812 0
L 0 0
z
" style="fill: #ffffff"/>
  </g>
  <g id="axes_1">
   <g id="table_1">
    <g id="patch_2">
     <path d="M 36.36 107.427273
L 203.76 107.427273
L 203.76 93.518182
L 36.36 93.518182
z
" style="fill: #ffffff; stroke: #000000; stroke-linejoin: miter"/>
    </g>
    <g id="text_1">
     <text style="font-size: 11px; font-family: 'DejaVu Sans'; text-anchor: middle" x="120.06" y="103.50804" transform="rotate(-0 120.06 103.50804)">Region</text>
    </g>
    <g id="patch_3">
     <path d="M 203.76 107.427273
L 371.16 107.427273
L 371.16 93.518182
L 203.76 93.518182
z
" style="fill: #ffffff; stroke: #000000; stroke-linejoin: miter"/>
    </g>
    <g id="text_2">
     <text style="font-size: 11px; font-family: 'DejaVu Sans'; text-anchor: middle" x="287.46" y="103.50804" transform="rotate(-0 287.46 103.50804)">Category</text>
    </g>
    <g id="patch_4">
     <path d="M 371.16 107.427273
L 538.56 107.427273
L 538.56 93.518182
L 371.16 93.518182
z
" style="fill: #ffffff; stroke: #000000; stroke-linejoin: miter"/>
    </g>
    <g id="text_3">
     <text style="font-size: 11px; font-family: 'DejaVu Sans'; text-anchor: middle" x="454.86" y="103.50804" transform="rotate(-0 454.86 103.50804)">Revenue</text>
    </g>
    <g id="patch_5">
     <path d="M 36.36 121.336364
L 203.76 121.336364
L 203.76 107.427273
L 36.36 107.427273
z
" style="fill: #ffffff; stroke: #000000; stroke-linejoin: miter"/>
    </g>
    <g id="text_4">
     <text style="font-size: 11px; font-family: 'DejaVu Sans'; text-anchor: end" x="187.02" y="117.417131" transform="rotate(-0 187.02 117.417131)">North</text>
    </g>
    <g id="patch_6">
     <path d="M 203.76 121.336364
L 371.16 121.336364
L 371.16 107.427273
L 203.76 107.427273
z
" style="fill: #ffffff; stroke: #000000; stroke-linejoin: miter"/>
    </g>
    <g id="text_5">
     <text style="font-size: 11px; font-family: 'DejaVu Sans'; text-anchor: end" x="354.42" y="117.417131" transform="rotate(-0 354.42 117.417131)">A</text>
    </g>
    <g id="patch_7">
     <path d="M 371.16 121.336364
L 538.56 121.336364
L 538.56 107.427273
L 371.16 107.427273
z
" style="fill: #ffffff; stroke: #000000; stroke-linejoin: miter"/>
    </g>
    <g id="text_6">
     <text style="font-size: 11px; font-family: 'DejaVu Sans'; text-anchor: end" x="521.82" y="117.417131" transform="rotate(-0 521.82 117.417131)">100</text>
    </g>
    <g id="patch_8">
     <path d="M 36.36 135.245455
L 203.76 135.245455
L 203.76 121.336364
L 36.36 121.336364
z
" style="fill: #ffffff; stroke: #000000; stroke-linejoin: miter"/>
    </g>
    <g id="text_7">
     <text style="font-size: 11px; font-family: 'DejaVu Sans'; text-anchor: end" x="187.02" y="131.326222" transform="rotate(-0 187.02 131.326222)">North</text>
    </g>
    <g id="patch_9">
     <path d="M 203.76 135.245455
L 371.16 135.245455
L 371.16 121.336364
L 203.76 121.336364
z
" style="fill: #ffffff; stroke: #000000; stroke-linejoin: miter"/>
    </g>
    <g id="text_8">
     <text style="font-size: 11px; font-family: 'DejaVu Sans'; text-anchor: end" x="354.42" y="131.326222" transform="rotate(-0 354.42 131.326222)">B</text>
    </g>
    <g id="patch_10">
     <path d="M 371.16 135.245455
L 538.56 135.245455
L 538.56 121.336364
L 371.16 121.336364
z
" style="fill: #ffffff; stroke: #000000; stroke-linejoin: miter"/>
    </g>
    <g id="text_9">
     <text style="font-size: 11px; font-family: 'DejaVu Sans'; text-anchor: end" x="521.82" y="131.326222" transform="rotate(-0 521.82 131.326222)">50</text>
    </g>
    <g id="patch_11">
     <path d="M 36.36 149.154545
L 203.76 149.154545
L 203.76 135.245455
L 36.36 135.245455
z
" style="fill: #ffffff; stroke: #000000; stroke-linejoin: miter"/>
    </g>
    <g id="text_10">
     <text style="font-size: 11px; font-family: 'DejaVu Sans'; text-anchor: end" x="187.02" y="145.235312" transform="rotate(-0 187.02 145.235312)">South</text>
    </g>
    <g id="patch_12">
     <path d="M 203.76 149.154545
L 371.16 149.154545
L 371.16 135.245455
L 203.76 135.245455
z
" style="fill: #ffffff; stroke: #000000; stroke-linejoin: miter"/>
    </g>
    <g id="text_11">
     <text style="font-size: 11px; font-family: 'DejaVu Sans'; text-anchor: end" x="354.42" y="145.235312" transform="rotate(-0 354.42 145.235312)">A</text>
    </g>
    <g id="patch_13">
     <path d="M 371.16 149.154545
L 538.56 149.154545
L 538.56 135.245455
L 371.16 135.245455
z
" style="fill: #ffffff; stroke: #000000; stroke-linejoin: miter"/>
    </g>
    <g id="text_12">
     <text style="font-size: 11px; font-family: 'DejaVu Sans'; text-anchor: end" x="521.82" y="145.235312" transform="rotate(-0 521.82 145.235312)">80</text>
    </g>
    <g id="patch_14">
     <path d="M 36.36 163.063636
L 203.76 163.063636
L 203.76 149.154545
L 36.36 149.154545
z
" style="fill: #ffffff; stroke: #000000; stroke-linejoin: miter"/>
    </g>
    <g id="text_13">
     <text style="font-size: 11px; font-family: 'DejaVu Sans'; text-anchor: end" x="187.02" y="159.144403" transform="rotate(-0 187.02 159.144403)">South</text>
    </g>
    <g id="patch_15">
     <path d="M 203.76 163.063636
L 371.16 163.063636
L 371.16 149.154545
L 203.76 149.154545
z
" style="fill: #ffffff; stroke: #000000; stroke-linejoin: miter"/>
    </g>
    <g id="text_14">
     <text style="font-size: 11px; font-family: 'DejaVu Sans'; text-anchor: end" x="354.42" y="159.144403" transform="rotate(-0 354.42 159.144403)">B</text>
    </g>
    <g id="patch_16">
     <path d="M 371.16 163.063636
L 538.56 163.063636
L 538.56 149.154545
L 371.16 149.154545
z
" style="fill: #ffffff; stroke: #000000; stroke-linejoin: miter"/>
    </g>
    <g id="text_15">
     <text style="font-size: 11px; font-family: 'DejaVu Sans'; text-anchor: end" x="521.82" y="159.144403" transform="rotate(-0 521.82 159.144403)">20</text>
    </g>
    <g id="patch_17">
     <path d="M 36.36 176.972727
L 203.76 176.972727
L 203.76 163.063636
L 36.36 163.063636
z
" style="fill: #ffffff; stroke: #000000; stroke-linejoin: miter"/>
    </g>
    <g id="text_16">
     <text style="font-size: 11px; font-family: 'DejaVu Sans'; text-anchor: end" x="187.02" y="173.053494" transform="rotate(-0 187.02 173.053494)">North</text>
    </g>
    <g id="patch_18">
     <path d="M 203.76 176.972727
L 371.16 176.972727
L 371.16 163.063636
L 203.76 163.063636
z
" style="fill: #ffffff; stroke: #000000; stroke-linejoin: miter"/>
    </g>
    <g id="text_17">
     <text style="font-size: 11px; font-family: 'DejaVu Sans'; text-anchor: end" x="354.42" y="173.053494" transform="rotate(-0 354.42 173.053494)">A</text>
    </g>
    <g id="patch_19">
     <path d="M 371.16 176.972727
L 538.56 176.972727
L 538.56 163.063636
L 371.16 163.063636
z
" style="fill: #ffffff; stroke: #000000; stroke-linejoin: miter"/>
    </g>
    <g id="text_18">
     <text style="font-size: 11px; font-family: 'DejaVu Sans'; text-anchor: end" x="521.82" y="173.053494" transform="rotate(-0 521.82 173.053494)">30</text>
    </g>
    <g id="patch_20">
     <path d="M 36.36 190.881818
L 203.76 190.881818
L 203.76 176.972727
L 36.36 176.972727
z
" style="fill: #ffffff; stroke: #000000; stroke-linejoin: miter"/>
    </g>
    <g id="text_19">
     <text style="font-size: 11px; font-family: 'DejaVu Sans'; text-anchor: end" x="187.02" y="186.962585" transform="rotate(-0 187.02 186.962585)">South</text>
    </g>
    <g id="patch_21">
     <path d="M 203.76 190.881818
L 371.16 190.881818
L 371.16 176.972727
L 203.76 176.972727
z
" style="fill: #ffffff; stroke: #000000; stroke-linejoin: miter"/>
    </g>
    <g id="text_20">
     <text style="font-size: 11px; font-family: 'DejaVu Sans'; text-anchor: end" x="354.42" y="186.962585" transform="rotate(-0 354.42 186.962585)">B</text>
    </g>
    <g id="patch_22">
     <path d="M 371.16 190.881818
L 538.56 190.881818
L 538.56 176.972727
L 371.16 176.972727
z
" style="fill: #ffffff; stroke: #000000; stroke-linejoin: miter"/>
    </g>
    <g id="text_21">
     <text style="font-size: 11px; font-family: 'DejaVu Sans'; text-anchor: end" x="521.82" y="186.962585" transform="rotate(-0 521.82 186.962585)">40</text>
    </g>
   </g>
   <g id="text_22">
    <text style="font-size: 12px; font-family: 'DejaVu Sans'; text-anchor: start" x="36.36" y="73.2" transform="rotate(-0 36.36 73.2)">Raw rows</text>
   </g>
  </g>
  <g id="axes_2">
   <g id="table_2">
    <g id="patch_23">
     <path d="M 36.36 324.245455
L 287.46 324.245455
L 287.46 310.336364
L 36.36 310.336364
z
" style="fill: #ffffff; stroke: #000000; stroke-linejoin: miter"/>
    </g>
    <g id="text_23">
     <text style="font-size: 11px; font-family: 'DejaVu Sans'; text-anchor: middle" x="161.91" y="320.326222" transform="rotate(-0 161.91 320.326222)">Region</text>
    </g>
    <g id="patch_24">
     <path d="M 287.46 324.245455
L 538.56 324.245455
L 538.56 310.336364
L 287.46 310.336364
z
" style="fill: #ffffff; stroke: #000000; stroke-linejoin: miter"/>
    </g>
    <g id="text_24">
     <text style="font-size: 11px; font-family: 'DejaVu Sans'; text-anchor: middle" x="413.01" y="320.326222" transform="rotate(-0 413.01 320.326222)">Revenue</text>
    </g>
    <g id="patch_25">
     <path d="M 36.36 338.154545
L 287.46 338.154545
L 287.46 324.245455
L 36.36 324.245455
z
" style="fill: #ffffff; stroke: #000000; stroke-linejoin: miter"/>
    </g>
    <g id="text_25">
     <text style="font-size: 11px; font-family: 'DejaVu Sans'; text-anchor: end" x="262.35" y="334.235312" transform="rotate(-0 262.35 334.235312)">North</text>
    </g>
    <g id="patch_26">
     <path d="M 287.46 338.154545
L 538.56 338.154545
L 538.56 324.245455
L 287.46 324.245455
z
" style="fill: #ffffff; stroke: #000000; stroke-linejoin: miter"/>
    </g>
    <g id="text_26">
     <text style="font-size: 11px; font-family: 'DejaVu Sans'; text-anchor: end" x="513.45" y="334.235312" transform="rotate(-0 513.45 334.235312)">180</text>
    </g>
    <g id="patch_27">
     <path d="M 36.36 352.063636
L 287.46 352.063636
L 287.46 338.154545
L 36.36 338.154545
z
" style="fill: #ffffff; stroke: #000000; stroke-linejoin: miter"/>
    </g>
    <g id="text_27">
     <text style="font-size: 11px; font-family: 'DejaVu Sans'; text-anchor: end" x="262.35" y="348.144403" transform="rotate(-0 262.35 348.144403)">South</text>
    </g>
    <g id="patch_28">
     <path d="M 287.46 352.063636
L 538.56 352.063636
L 538.56 338.154545
L 287.46 338.154545
z
" style="fill: #ffffff; stroke: #000000; stroke-linejoin: miter"/>
    </g>
    <g id="text_28">
     <text style="font-size: 11px; font-family: 'DejaVu Sans'; text-anchor: end" x="513.45" y="348.144403" transform="rotate(-0 513.45 348.144403)">140</text>
    </g>
   </g>
   <g id="text_29">
    <text style="font-size: 12px; font-family: 'DejaVu Sans'; text-anchor: start" x="36.36" y="262.2" transform="rotate(-0 36.36 262.2)">Group totals</text>
   </g>
  </g>
  <g id="axes_3">
   <g id="table_3">
    <g id="patch_29">
     <path d="M 36.36 506.290909
L 161.91 506.290909
L 161.91 492.381818
L 36.36 492.381818
z
" style="fill: #ffffff; stroke: #000000; stroke-linejoin: miter"/>
    </g>
    <g id="text_30">
     <text style="font-size: 11px; font-family: 'DejaVu Sans'; text-anchor: middle" x="99.135" y="502.371676" transform="rotate(-0 99.135 502.371676)">Region</text>
    </g>
    <g id="patch_30">
     <path d="M 161.91 506.290909
L 287.46 506.290909
L 287.46 492.381818
L 161.91 492.381818
z
" style="fill: #ffffff; stroke: #000000; stroke-linejoin: miter"/>
    </g>
    <g id="text_31">
     <text style="font-size: 11px; font-family: 'DejaVu Sans'; text-anchor: middle" x="224.685" y="502.371676" transform="rotate(-0 224.685 502.371676)">A</text>
    </g>
    <g id="patch_31">
     <path d="M 287.46 506.290909
L 413.01 506.290909
L 413.01 492.381818
L 287.46 492.381818
z
" style="fill: #ffffff; stroke: #000000; stroke-linejoin: miter"/>
    </g>
    <g id="text_32">
     <text style="font-size: 11px; font-family: 'DejaVu Sans'; text-anchor: middle" x="350.235" y="502.371676" transform="rotate(-0 350.235 502.371676)">B</text>
    </g>
    <g id="patch_32">
     <path d="M 413.01 506.290909
L 538.56 506.290909
L 538.56 492.381818
L 413.01 492.381818
z
" style="fill: #ffffff; stroke: #000000; stroke-linejoin: miter"/>
    </g>
    <g id="text_33">
     <text style="font-size: 11px; font-family: 'DejaVu Sans'; text-anchor: middle" x="475.785" y="502.371676" transform="rotate(-0 475.785 502.371676)">All</text>
    </g>
    <g id="patch_33">
     <path d="M 36.36 520.2
L 161.91 520.2
L 161.91 506.290909
L 36.36 506.290909
z
" style="fill: #ffffff; stroke: #000000; stroke-linejoin: miter"/>
    </g>
    <g id="text_34">
     <text style="font-size: 11px; font-family: 'DejaVu Sans'; text-anchor: end" x="149.355" y="516.280767" transform="rotate(-0 149.355 516.280767)">North</text>
    </g>
    <g id="patch_34">
     <path d="M 161.91 520.2
L 287.46 520.2
L 287.46 506.290909
L 161.91 506.290909
z
" style="fill: #ffffff; stroke: #000000; stroke-linejoin: miter"/>
    </g>
    <g id="text_35">
     <text style="font-size: 11px; font-family: 'DejaVu Sans'; text-anchor: end" x="274.905" y="516.280767" transform="rotate(-0 274.905 516.280767)">130</text>
    </g>
    <g id="patch_35">
     <path d="M 287.46 520.2
L 413.01 520.2
L 413.01 506.290909
L 287.46 506.290909
z
" style="fill: #ffffff; stroke: #000000; stroke-linejoin: miter"/>
    </g>
    <g id="text_36">
     <text style="font-size: 11px; font-family: 'DejaVu Sans'; text-anchor: end" x="400.455" y="516.280767" transform="rotate(-0 400.455 516.280767)">50</text>
    </g>
    <g id="patch_36">
     <path d="M 413.01 520.2
L 538.56 520.2
L 538.56 506.290909
L 413.01 506.290909
z
" style="fill: #ffffff; stroke: #000000; stroke-linejoin: miter"/>
    </g>
    <g id="text_37">
     <text style="font-size: 11px; font-family: 'DejaVu Sans'; text-anchor: end" x="526.005" y="516.280767" transform="rotate(-0 526.005 516.280767)">180</text>
    </g>
    <g id="patch_37">
     <path d="M 36.36 534.109091
L 161.91 534.109091
L 161.91 520.2
L 36.36 520.2
z
" style="fill: #ffffff; stroke: #000000; stroke-linejoin: miter"/>
    </g>
    <g id="text_38">
     <text style="font-size: 11px; font-family: 'DejaVu Sans'; text-anchor: end" x="149.355" y="530.189858" transform="rotate(-0 149.355 530.189858)">South</text>
    </g>
    <g id="patch_38">
     <path d="M 161.91 534.109091
L 287.46 534.109091
L 287.46 520.2
L 161.91 520.2
z
" style="fill: #ffffff; stroke: #000000; stroke-linejoin: miter"/>
    </g>
    <g id="text_39">
     <text style="font-size: 11px; font-family: 'DejaVu Sans'; text-anchor: end" x="274.905" y="530.189858" transform="rotate(-0 274.905 530.189858)">80</text>
    </g>
    <g id="patch_39">
     <path d="M 287.46 534.109091
L 413.01 534.109091
L 413.01 520.2
L 287.46 520.2
z
" style="fill: #ffffff; stroke: #000000; stroke-linejoin: miter"/>
    </g>
    <g id="text_40">
     <text style="font-size: 11px; font-family: 'DejaVu Sans'; text-anchor: end" x="400.455" y="530.189858" transform="rotate(-0 400.455 530.189858)">60</text>
    </g>
    <g id="patch_40">
     <path d="M 413.01 534.109091
L 538.56 534.109091
L 538.56 520.2
L 413.01 520.2
z
" style="fill: #ffffff; stroke: #000000; stroke-linejoin: miter"/>
    </g>
    <g id="text_41">
     <text style="font-size: 11px; font-family: 'DejaVu Sans'; text-anchor: end" x="526.005" y="530.189858" transform="rotate(-0 526.005 530.189858)">140</text>
    </g>
    <g id="patch_41">
     <path d="M 36.36 548.018182
L 161.91 548.018182
L 161.91 534.109091
L 36.36 534.109091
z
" style="fill: #ffffff; stroke: #000000; stroke-linejoin: miter"/>
    </g>
    <g id="text_42">
     <text style="font-size: 11px; font-family: 'DejaVu Sans'; text-anchor: end" x="149.355" y="544.098949" transform="rotate(-0 149.355 544.098949)">All</text>
    </g>
    <g id="patch_42">
     <path d="M 161.91 548.018182
L 287.46 548.018182
L 287.46 534.109091
L 161.91 534.109091
z
" style="fill: #ffffff; stroke: #000000; stroke-linejoin: miter"/>
    </g>
    <g id="text_43">
     <text style="font-size: 11px; font-family: 'DejaVu Sans'; text-anchor: end" x="274.905" y="544.098949" transform="rotate(-0 274.905 544.098949)">210</text>
    </g>
    <g id="patch_43">
     <path d="M 287.46 548.018182
L 413.01 548.018182
L 413.01 534.109091
L 287.46 534.109091
z
" style="fill: #ffffff; stroke: #000000; stroke-linejoin: miter"/>
    </g>
    <g id="text_44">
     <text style="font-size: 11px; font-family: 'DejaVu Sans'; text-anchor: end" x="400.455" y="544.098949" transform="rotate(-0 400.455 544.098949)">110</text>
    </g>
    <g id="patch_44">
     <path d="M 413.01 548.018182
L 538.56 548.018182
L 538.56 534.109091
L 413.01 534.109091
z
" style="fill: #ffffff; stroke: #000000; stroke-linejoin: miter"/>
    </g>
    <g id="text_45">
     <text style="font-size: 11px; font-family: 'DejaVu Sans'; text-anchor: end" x="526.005" y="544.098949" transform="rotate(-0 526.005 544.098949)">320</text>
    </g>
   </g>
   <g id="text_46">
    <text style="font-size: 12px; font-family: 'DejaVu Sans'; text-anchor: start" x="36.36" y="451.2" transform="rotate(-0 36.36 451.2)">Pivot layout</text>
   </g>
  </g>
  <g id="text_47">
   <text style="font-weight: 700; font-size: 17px; font-family: 'DejaVu Sans'; text-anchor: start; fill: #183153" x="7.2" y="20.117344" transform="rotate(-0 7.2 20.117344)">Split, aggregate, and change layout</text>
  </g>
  <g id="text_48">
   <text style="font-size: 10px; font-family: 'DejaVu Sans'; text-anchor: start; fill: #183153" x="7.2" y="687.6" transform="rotate(-0 7.2 687.6)">Synthetic six-row example. North=180, South=140; grand total=320. Pivot totals reconcile to raw revenue.</text>
  </g>
 </g>
</svg>
