<?xml version="1.0" encoding="utf-8" standalone="no"?>
<!DOCTYPE svg PUBLIC "-//W3C//DTD SVG 1.1//EN"
  "http://www.w3.org/Graphics/SVG/1.1/DTD/svg11.dtd">
<svg xmlns:xlink="http://www.w3.org/1999/xlink" width="628.2pt" height="420.797831pt" viewBox="0 0 628.2 420.797831" xmlns="http://www.w3.org/2000/svg" version="1.1">
 <metadata>
  <rdf:RDF xmlns:dc="http://purl.org/dc/elements/1.1/" xmlns:cc="http://creativecommons.org/ns#" xmlns:rdf="http://www.w3.org/1999/02/22-rdf-syntax-ns#">
   <cc:Work>
    <dc:type rdf:resource="http://purl.org/dc/dcmitype/StillImage"/>
    <dc:date>2026-10-08T17:09:48.902493</dc:date>
    <dc:format>image/svg+xml</dc:format>
    <dc:creator>
     <cc:Agent>
      <dc:title>Matplotlib v3.10.8, https://matplotlib.org/</dc:title>
     </cc:Agent>
    </dc:creator>
   </cc:Work>
  </rdf:RDF>
 </metadata>
 <defs>
  <style type="text/css">*{stroke-linejoin: round; stroke-linecap: butt}</style>
 </defs>
 <g id="figure_1">
  <g id="patch_1">
   <path d="M 0 420.797831
L 628.2 420.797831
L 628.2 0
L 0 0
z
" style="fill: #ffffff"/>
  </g>
  <g id="axes_1">
   <g id="table_1">
    <g id="patch_2">
     <path d="M 7.2 118.657031
L 211.8 118.657031
L 211.8 79.849031
L 7.2 79.849031
z
" style="fill: #eef2f7; stroke: #d5dee8; stroke-linejoin: miter"/>
    </g>
    <g id="text_1">
     <text style="font-weight: 700; font-size: 11px; font-family: 'DejaVu Sans'; text-anchor: middle; fill: #183153" x="109.5" y="102.245375" transform="rotate(-0 109.5 102.245375)">Training minimum</text>
    </g>
    <g id="patch_3">
     <path d="M 211.8 118.657031
L 416.4 118.657031
L 416.4 79.849031
L 211.8 79.849031
z
" style="fill: #eef2f7; stroke: #d5dee8; stroke-linejoin: miter"/>
    </g>
    <g id="text_2">
     <text style="font-weight: 700; font-size: 11px; font-family: 'DejaVu Sans'; text-anchor: middle; fill: #183153" x="314.1" y="102.245375" transform="rotate(-0 314.1 102.245375)">Training maximum</text>
    </g>
    <g id="patch_4">
     <path d="M 416.4 118.657031
L 621 118.657031
L 621 79.849031
L 416.4 79.849031
z
" style="fill: #eef2f7; stroke: #d5dee8; stroke-linejoin: miter"/>
    </g>
    <g id="text_3">
     <text style="font-weight: 700; font-size: 11px; font-family: 'DejaVu Sans'; text-anchor: middle; fill: #183153" x="518.7" y="102.288344" transform="rotate(-0 518.7 102.288344)">Fitted transformation</text>
    </g>
    <g id="patch_5">
     <path d="M 7.2 157.465031
L 211.8 157.465031
L 211.8 118.657031
L 7.2 118.657031
z
" style="fill: #f7fafc; stroke: #d5dee8; stroke-linejoin: miter"/>
    </g>
    <g id="text_4">
     <text style="font-size: 11px; font-family: 'DejaVu Sans'; text-anchor: middle" x="109.5" y="141.096344" transform="rotate(-0 109.5 141.096344)">10</text>
    </g>
    <g id="patch_6">
     <path d="M 211.8 157.465031
L 416.4 157.465031
L 416.4 118.657031
L 211.8 118.657031
z
" style="fill: #f7fafc; stroke: #d5dee8; stroke-linejoin: miter"/>
    </g>
    <g id="text_5">
     <text style="font-size: 11px; font-family: 'DejaVu Sans'; text-anchor: middle" x="314.1" y="141.096344" transform="rotate(-0 314.1 141.096344)">100</text>
    </g>
    <g id="patch_7">
     <path d="M 416.4 157.465031
L 621 157.465031
L 621 118.657031
L 416.4 118.657031
z
" style="fill: #f7fafc; stroke: #d5dee8; stroke-linejoin: miter"/>
    </g>
    <g id="text_6">
     <text style="font-size: 11px; font-family: 'DejaVu Sans'; text-anchor: middle" x="518.7" y="141.096344" transform="rotate(-0 518.7 141.096344)">(x − 10)/90</text>
    </g>
   </g>
   <g id="table_2">
    <g id="patch_8">
     <path d="M 7.2 262.246631
L 142.236 262.246631
L 142.236 223.438631
L 7.2 223.438631
z
" style="fill: #eef2f7; stroke: #d5dee8; stroke-linejoin: miter"/>
    </g>
    <g id="text_7">
     <text style="font-weight: 700; font-size: 11px; font-family: 'DejaVu Sans'; text-anchor: middle; fill: #183153" x="74.718" y="245.877944" transform="rotate(-0 74.718 245.877944)">Unseen x</text>
    </g>
    <g id="patch_9">
     <path d="M 142.236 262.246631
L 436.86 262.246631
L 436.86 223.438631
L 142.236 223.438631
z
" style="fill: #eef2f7; stroke: #d5dee8; stroke-linejoin: miter"/>
    </g>
    <g id="text_8">
     <text style="font-weight: 700; font-size: 11px; font-family: 'DejaVu Sans'; text-anchor: middle; fill: #183153" x="289.548" y="245.877944" transform="rotate(-0 289.548 245.877944)">Exact transformed value</text>
    </g>
    <g id="patch_10">
     <path d="M 436.86 262.246631
L 621 262.246631
L 621 223.438631
L 436.86 223.438631
z
" style="fill: #eef2f7; stroke: #d5dee8; stroke-linejoin: miter"/>
    </g>
    <g id="text_9">
     <text style="font-weight: 700; font-size: 11px; font-family: 'DejaVu Sans'; text-anchor: middle; fill: #183153" x="528.93" y="245.877944" transform="rotate(-0 528.93 245.877944)">Decimal representation</text>
    </g>
    <g id="patch_11">
     <path d="M 7.2 301.054631
L 142.236 301.054631
L 142.236 262.246631
L 7.2 262.246631
z
" style="fill: #f7fafc; stroke: #d5dee8; stroke-linejoin: miter"/>
    </g>
    <g id="text_10">
     <text style="font-size: 11px; font-family: 'DejaVu Sans'; text-anchor: middle" x="74.718" y="284.685944" transform="rotate(-0 74.718 284.685944)">120</text>
    </g>
    <g id="patch_12">
     <path d="M 142.236 301.054631
L 436.86 301.054631
L 436.86 262.246631
L 142.236 262.246631
z
" style="fill: #f7fafc; stroke: #d5dee8; stroke-linejoin: miter"/>
    </g>
    <g id="text_11">
     <text style="font-size: 11px; font-family: 'DejaVu Sans'; text-anchor: middle" x="289.548" y="284.685944" transform="rotate(-0 289.548 284.685944)">(120 − 10)/90 = 11/9</text>
    </g>
    <g id="patch_13">
     <path d="M 436.86 301.054631
L 621 301.054631
L 621 262.246631
L 436.86 262.246631
z
" style="fill: #f7fafc; stroke: #d5dee8; stroke-linejoin: miter"/>
    </g>
    <g id="text_12">
     <text style="font-size: 11px; font-family: 'DejaVu Sans'; text-anchor: middle" x="528.93" y="284.685944" transform="rotate(-0 528.93 284.685944)">1.222222…</text>
    </g>
   </g>
   <g id="text_13">
    <text style="font-weight: 700; font-size: 19px; font-family: 'DejaVu Sans'; text-anchor: start; fill: #183153" x="7.2" y="21.637031" transform="rotate(-0 7.2 21.637031)">B · An unseen value can exceed the fitted range</text>
   </g>
   <g id="text_14">
    <text style="font-size: 11px; font-family: 'DejaVu Sans'; text-anchor: start; fill: #526174" x="7.2" y="39.100631" transform="rotate(-0 7.2 39.100631)">Fit on training values [10, 20, 30, 40, 100]; clipping is disabled</text>
   </g>
   <g id="patch_14">
    <path d="M 314.1 171.105863
Q 314.1 194.33081 314.1 215.319689
" style="fill: none; stroke: #183153; stroke-width: 2; stroke-linecap: round"/>
    <path d="M 316.3 210.919689
L 314.1 215.319689
L 311.9 210.919689
" style="fill: none; stroke: #183153; stroke-width: 2; stroke-linecap: round"/>
   </g>
   <g id="text_15">
    <g id="patch_15">
     <path d="M 228.167188 191.650719
L 400.032813 191.650719
L 400.032813 175.972594
L 228.167188 175.972594
z
" style="fill: #ffffff"/>
    </g>
    <text style="font-size: 10px; font-family: 'DejaVu Sans'; text-anchor: middle; fill: #183153" x="314.1" y="186.571031" transform="rotate(-0 314.1 186.571031)">Apply unchanged to unseen data</text>
   </g>
   <g id="text_16">
    <text style="font-weight: 700; font-size: 11px; font-family: 'DejaVu Sans'; text-anchor: start; fill: #0f766e" x="7.2" y="335.981831" transform="rotate(-0 7.2 335.981831)">120 is greater than the training maximum of 100, so its scaled value exceeds 1.</text>
   </g>
   <g id="text_17">
    <text style="font-size: 11px; font-family: 'DejaVu Sans'; text-anchor: start; fill: #b7791f" x="7.2" y="367.028231" transform="rotate(-0 7.2 367.028231)">Do not refit using the test observation. That would leak test information.</text>
   </g>
   <g id="text_18">
    <text style="font-size: 11px; font-family: 'DejaVu Sans'; text-anchor: start; fill: #183153" x="7.2" y="396.134231" transform="rotate(-0 7.2 396.134231)">Optional clipping gives 1, but hides how far the observation lies beyond the training range.</text>
   </g>
  </g>
 </g>
</svg>
